<svg xmlns="http://www.w3.org/2000/svg" viewBox="0 0 45.33 42.39"><defs><style>.cls-1{fill:#fff;}</style></defs><title>Customer Satisfication</title><g id="Layer_2" data-name="Layer 2"><g id="Capa_1" data-name="Capa 1"><path class="cls-1" d="M45.25,12.73C44.58,5.35,39.32,0,32.76,0A12.29,12.29,0,0,0,22.55,5.45,12,12,0,0,0,12.57,0C6,0,.74,5.36.08,12.71a13.2,13.2,0,0,0,.38,4.86,20.56,20.56,0,0,0,6.29,10.5L22.53,42.39l16-14.32a20.47,20.47,0,0,0,6.28-10.5A12.9,12.9,0,0,0,45.25,12.73Zm-22.71,26-14-12.68A17.85,17.85,0,0,1,3.1,17a10.83,10.83,0,0,1-.35-3.81l0-.12C3.3,7,7.42,2.71,12.57,2.71a9.49,9.49,0,0,1,8.72,6.1l1.25,2.95,1.24-2.95a9.8,9.8,0,0,1,9-6.1c5.15,0,9.28,4.37,9.82,10.43A10.6,10.6,0,0,1,42.23,17a17.83,17.83,0,0,1-5.46,9.11Z"/><path class="cls-1" d="M14.14,5.18a9,9,0,0,0-9,9,1.36,1.36,0,0,0,2.71,0,6.32,6.32,0,0,1,6.32-6.32,1.36,1.36,0,0,0,0-2.71Z"/></g></g></svg>