<svg id="Capa_1" data-name="Capa 1" xmlns="http://www.w3.org/2000/svg" viewBox="0 0 502.66 502.66"><defs><style>.cls-1{fill:#fff;}</style></defs><title>Dashboard</title><path class="cls-1" d="M472.08,25.43H30.61A30.7,30.7,0,0,0,0,56V373.43A30.7,30.7,0,0,0,30.61,404H472.08a30.7,30.7,0,0,0,30.58-30.59V56A30.69,30.69,0,0,0,472.08,25.43Zm-7.7,325.5H38.29V68.34H464.38Z"/><polygon class="cls-1" points="194.7 418.54 136.93 477.23 366.57 477.23 308.81 418.54 194.7 418.54"/><path class="cls-1" d="M103.35,294.27a20.49,20.49,0,0,0,20.47-20.45,20,20,0,0,0-1.17-5.78c26.17-21.1,72.39-58.29,93.47-74.53a18.44,18.44,0,0,0,21.4,1.17l52.93,45a19.53,19.53,0,0,0-.69,3.5,20.5,20.5,0,0,0,41,0,19.85,19.85,0,0,0-1.15-5.67l52.94-47.81a19.93,19.93,0,0,0,9.36,2.55,20.47,20.47,0,1,0-20.45-20.45,20.26,20.26,0,0,0,1.53,7.61l-51.85,46.83a18.73,18.73,0,0,0-23.41,1.15l-51-43.32a19.9,19.9,0,0,0,1.4-7,20.47,20.47,0,0,0-40.94,0,20,20,0,0,0,1.43,7l-94,73.11a20,20,0,0,0-11.32-3.89,20.48,20.48,0,0,0,0,40.95Z"/></svg>