<svg xmlns="http://www.w3.org/2000/svg" xmlns:xlink="http://www.w3.org/1999/xlink" viewBox="0 0 95.52 87.69"><defs><style>.cls-1{fill:url(#linear-gradient);}.cls-2{fill:url(#linear-gradient-2);}.cls-3{fill:url(#linear-gradient-3);}.cls-4{fill:url(#linear-gradient-4);}.cls-5{fill:url(#linear-gradient-5);}.cls-6{fill:url(#linear-gradient-6);}.cls-7{fill:url(#linear-gradient-7);}.cls-8{fill:url(#linear-gradient-8);}</style><linearGradient id="linear-gradient" x1="47.75" y1="2.01" x2="47.75" y2="87.02" gradientUnits="userSpaceOnUse"><stop offset="0" stop-color="#324bc3"/><stop offset="1" stop-color="#ec3f8c"/></linearGradient><linearGradient id="linear-gradient-2" x1="47.77" y1="2.01" x2="47.77" y2="87.02" xlink:href="#linear-gradient"/><linearGradient id="linear-gradient-3" x1="47.86" y1="2.01" x2="47.86" y2="87.02" xlink:href="#linear-gradient"/><linearGradient id="linear-gradient-4" x1="47.73" y1="2.01" x2="47.73" y2="87.02" xlink:href="#linear-gradient"/><linearGradient id="linear-gradient-5" x1="86" y1="2.01" x2="86" y2="87.02" xlink:href="#linear-gradient"/><linearGradient id="linear-gradient-6" x1="78.77" y1="2.01" x2="78.77" y2="87.02" xlink:href="#linear-gradient"/><linearGradient id="linear-gradient-7" x1="9.52" y1="2.01" x2="9.52" y2="87.02" xlink:href="#linear-gradient"/><linearGradient id="linear-gradient-8" x1="16.73" y1="2.01" x2="16.73" y2="87.02" xlink:href="#linear-gradient"/></defs><title>Event Meeting Select</title><g id="Layer_2" data-name="Layer 2"><g id="Layer_1-2" data-name="Layer 1"><g id="Layer_2-2" data-name="Layer 2"><g id="Layer_1-2-2" data-name="Layer 1-2"><path class="cls-1" d="M47.75,58.87a2.25,2.25,0,0,0-2.24,2.23V85.45a2.24,2.24,0,0,0,4.48,0V61.1A2.25,2.25,0,0,0,47.75,58.87Z"/><path class="cls-2" d="M29,56.19H66.54a2.24,2.24,0,0,0,0-4.47H29a2.24,2.24,0,0,0,0,4.47Z"/><path class="cls-3" d="M47.86,19.14a9.57,9.57,0,1,0-9.57-9.57h0A9.57,9.57,0,0,0,47.86,19.14Zm-5.1-9.56a5.1,5.1,0,1,1,5.11,5.09h0A5.11,5.11,0,0,1,42.76,9.58Z"/><path class="cls-4" d="M37.47,47.88a2.23,2.23,0,0,0,2.23-2.23V30.59A5.6,5.6,0,0,1,45.28,25h4.93a5.59,5.59,0,0,1,5.55,4.93V45.71a2.24,2.24,0,0,0,4.47,0V30.59a11.48,11.48,0,0,0-.07-1.17,10.06,10.06,0,0,0-10-8.89H45.28A10.07,10.07,0,0,0,35.23,30.59V45.65a2.23,2.23,0,0,0,2.23,2.23Z"/><path class="cls-5" d="M86,38.87a9.52,9.52,0,1,0-9.52-9.52A9.52,9.52,0,0,0,86,38.87Zm-5-9.52a5,5,0,1,1,5,5,5.05,5.05,0,0,1-5.06-5Z"/><path class="cls-6" d="M86.61,39.32h-2a8.86,8.86,0,0,0-8.86,8.86h0V58.63h-4a9.66,9.66,0,0,0-9.65,9.65V82.21a4.46,4.46,0,0,0,4.46,4.46h6A4.45,4.45,0,0,0,77,82.21V74h9a9.45,9.45,0,0,0,9.44-9.45V48.18A8.86,8.86,0,0,0,86.61,39.32ZM72.53,82.19h-6V68.28a5.18,5.18,0,0,1,5.18-5.18H78a2.24,2.24,0,0,0,2.24-2.24V48.18a4.41,4.41,0,0,1,4.39-4.39h2A4.41,4.41,0,0,1,91,48.18V64.59a5,5,0,0,1-5,5H74.75a2.24,2.24,0,0,0-2.24,2.24Z"/><path class="cls-7" d="M9.51,38.87A9.52,9.52,0,1,0,0,29.34H0A9.53,9.53,0,0,0,9.51,38.87Zm-5-9.52a5,5,0,1,1,5,5,5,5,0,0,1-5-5v0Z"/><path class="cls-8" d="M23.79,58.63h-4V48.18a8.86,8.86,0,0,0-8.85-8.86h-2A8.86,8.86,0,0,0,0,48.1V64.59A9.45,9.45,0,0,0,9.47,74h9v8.2a4.46,4.46,0,0,0,4.46,4.46H29a4.46,4.46,0,0,0,4.45-4.46V68.28A9.66,9.66,0,0,0,23.79,58.63Zm-3,10.93H9.47a5,5,0,0,1-5-5V48.18a4.39,4.39,0,0,1,4.38-4.39h2a4.41,4.41,0,0,1,4.39,4.39V60.86a2.24,2.24,0,0,0,2.24,2.24h6.25A5.18,5.18,0,0,1,29,68.19v14H23V71.8a2.24,2.24,0,0,0-2.24-2.24h0Z"/></g></g></g></g></svg>