<svg xmlns="http://www.w3.org/2000/svg" xmlns:xlink="http://www.w3.org/1999/xlink" viewBox="0 0 7.51 8.04"><defs><style>.cls-1{fill:url(#linear-gradient);}.cls-2{fill:url(#linear-gradient-2);}.cls-3{fill:url(#linear-gradient-3);}.cls-4{fill:url(#linear-gradient-4);}</style><linearGradient id="linear-gradient" x1="4.94" y1="0.11" x2="4.94" y2="8.01" gradientUnits="userSpaceOnUse"><stop offset="0" stop-color="#324bc3"/><stop offset="1" stop-color="#ec3f8c"/></linearGradient><linearGradient id="linear-gradient-2" x1="1.9" y1="0.11" x2="1.9" y2="8.01" xlink:href="#linear-gradient"/><linearGradient id="linear-gradient-3" x1="2.43" y1="0.11" x2="2.43" y2="8.01" xlink:href="#linear-gradient"/><linearGradient id="linear-gradient-4" x1="6.03" y1="0.11" x2="6.03" y2="8.01" xlink:href="#linear-gradient"/></defs><title>Groceries</title><g id="Layer_2" data-name="Layer 2"><g id="Layer_1-2" data-name="Layer 1"><path class="cls-1" d="M7.33,1.59H7.11A2.18,2.18,0,0,0,6.5.06a.18.18,0,0,0-.25,0L5.18,1s0,0,0-.05a.62.62,0,0,0-.3-.3.52.52,0,0,0-.41,0L4.51.52a.14.14,0,0,0,0-.14.18.18,0,0,0-.09-.1l-.1,0h0a.18.18,0,0,0-.14.11,1.17,1.17,0,0,0-.12.32.48.48,0,0,0-.41,0,.6.6,0,0,0-.31.3,2.36,2.36,0,0,0-.12.34,1.66,1.66,0,0,0,0,.28H2.56a.21.21,0,0,0-.13,0,.19.19,0,0,0-.05.13v.71h.37V2H7.14v4.4H4v.36H7.14v.48a.47.47,0,0,1-.47.48H4V8h2.7a.85.85,0,0,0,.84-.85V1.77A.18.18,0,0,0,7.33,1.59ZM4.05,1.07a.19.19,0,0,0,0,.12.31.31,0,0,0,.13.06h0A.19.19,0,0,0,4.4,1.1L4.52,1a.92.92,0,0,1,.2,0,.25.25,0,0,1,.11.13.67.67,0,0,1,.06.15l-.35.31h-1c0-.05,0-.1,0-.18a1.83,1.83,0,0,1,.1-.28c0-.07.07-.11.11-.12A.44.44,0,0,1,4,1Zm2.26.52H6v0L5.93,1.5a.22.22,0,0,0-.13-.06h0a.16.16,0,0,0-.11.05l.06-.05a.21.21,0,0,0,0-.13.19.19,0,0,0,0-.13.17.17,0,0,0-.15-.05L6,.75A1.34,1.34,0,0,1,6.31,1.59ZM5.42,1.5a.18.18,0,0,0,.12.05.17.17,0,0,0,.12-.05.16.16,0,0,0,0,.09H5.09l.29-.27s0,0,0,.05A.18.18,0,0,0,5.42,1.5Zm.87-1L6.35.44a1.87,1.87,0,0,1,.4,1.15H6.67A1.72,1.72,0,0,0,6.29.5Z"/><path class="cls-2" d="M3.23,3.43v-.6a.18.18,0,0,0-.18-.18H.76a.19.19,0,0,0-.19.18v.6L0,4.22a.23.23,0,0,0,0,.11V7.86A.18.18,0,0,0,.05,8,.18.18,0,0,0,.18,8H3.62A.18.18,0,0,0,3.75,8a.19.19,0,0,0,0-.13V4.34a.17.17,0,0,0,0-.1Zm-.36-.12H1.19v.36H3l.37.56H1.41L.94,3.47V3H2.87ZM.37,4.38l.37-.54L1,4.23H.53V4.6h.6V7.67H.36Zm1.12.22h2V7.67H1.49Z"/><path class="cls-3" d="M2.82,6a1.59,1.59,0,0,0-.09-.2l-.14-.25a.2.2,0,0,0-.17-.09.24.24,0,0,0-.15.09l-.13.25A1.85,1.85,0,0,0,2,6H2a.59.59,0,0,0,0,.2.43.43,0,0,0,.45.41.43.43,0,0,0,.45-.41.59.59,0,0,0,0-.2Zm-.39.26a.1.1,0,0,1-.08,0h0s0,0,0-.07L2.43,6l.06.12,0,.07h0A.08.08,0,0,1,2.43,6.22Zm.13,0Z"/><path class="cls-4" d="M5.94,1.35a.19.19,0,0,0,.13,0,.21.21,0,0,0,.13,0,.19.19,0,0,0,0-.26L6.13,1A.16.16,0,0,0,6,1H6A.21.21,0,0,0,5.87,1a.21.21,0,0,0,0,.13.2.2,0,0,0,.06.14Z"/></g></g></svg>