<svg id="Layer_1" data-name="Layer 1" xmlns="http://www.w3.org/2000/svg" xmlns:xlink="http://www.w3.org/1999/xlink" viewBox="0 0 548.93 471.37"><defs><style>.cls-1{fill:url(#linear-gradient);}.cls-2{fill:url(#linear-gradient-2);}.cls-3{fill:url(#linear-gradient-3);}.cls-4{fill:url(#linear-gradient-4);}.cls-5{fill:url(#linear-gradient-5);}.cls-6{fill:url(#linear-gradient-6);}.cls-7{fill:#fad02c;}.cls-8{fill:#e29c00;}</style><linearGradient id="linear-gradient" x1="319.17" y1="147.59" x2="544.6" y2="147.59" gradientUnits="userSpaceOnUse"><stop offset="0" stop-color="#e29c00"/><stop offset="1" stop-color="#fad02c"/></linearGradient><linearGradient id="linear-gradient-2" x1="80.6" y1="301.66" x2="548.93" y2="301.66" gradientUnits="userSpaceOnUse"><stop offset="0" stop-color="#fad02c"/><stop offset="1" stop-color="#e29c00"/></linearGradient><linearGradient id="linear-gradient-3" x1="2.86" y1="250.34" x2="200.21" y2="250.34" gradientUnits="userSpaceOnUse"><stop offset="0" stop-color="#e07500"/><stop offset="1" stop-color="#e29c00"/></linearGradient><linearGradient id="linear-gradient-4" y1="317.15" x2="197.74" y2="317.15" gradientUnits="userSpaceOnUse"><stop offset="0" stop-color="#e07500"/><stop offset="1" stop-color="#8c4600"/></linearGradient><linearGradient id="linear-gradient-5" x1="395.53" y1="104.39" x2="519.26" y2="104.39" gradientUnits="userSpaceOnUse"><stop offset="0" stop-color="#cbdb2a" stop-opacity="0"/><stop offset="1" stop-color="#fff9ae" stop-opacity="0.8"/></linearGradient><linearGradient id="linear-gradient-6" x1="-1950.63" y1="-1762.88" x2="-1950.63" y2="-1829.13" gradientTransform="translate(-1638.49 2161.29) rotate(90)" gradientUnits="userSpaceOnUse"><stop offset="0" stop-color="#e29c00"/><stop offset="1" stop-color="#ffd833" stop-opacity="0"/></linearGradient></defs><title>Logo</title><path className="cls-1" d="M531.7,163.56A183.93,183.93,0,0,0,544.6,132c-7.38-40-24.67-79.12-55.72-105.11C454.81-1.67,402-10.23,365.29,14.76,325.65,41.71,316,96.34,320,144.1s17.89,95.43,11.25,142.9c-.38,2.74-.86,5.46-1.39,8.17,35-10.3,69.66-21.79,102-38.6C472.8,235.25,510.24,204.49,531.7,163.56Z"/><path className="cls-2" d="M544.6,132a183.93,183.93,0,0,1-12.9,31.6c-21.46,40.93-58.9,71.69-99.89,93-32.3,16.81-67,28.3-102,38.6-10.29,53-47.64,100.13-97.14,121.76-54.93,24-98.77,7.6-152.11-7.07,81,73.11,220,78.6,313.59,29.44,104.51-54.9,168.26-178.61,152.3-295.58C546,139.8,545.32,135.87,544.6,132Z"/><path className="cls-3" d="M165.59,379.43a52.59,52.59,0,0,1-6.69-15.82c-3.9-17.59,1.66-36,9.55-52.17s18.16-31.28,24.6-48.11c14.39-37.58,6.9-83.38-20.84-112.54S97.12,112.2,61.5,130.93c-27.28,14.35-45.28,42.4-54.29,71.87a163.08,163.08,0,0,0-4.35,17.86,208.18,208.18,0,0,0,46.53,92.59C79.39,347.32,121.08,370.7,165.59,379.43Z"/><path className="cls-4" d="M165.59,379.43c-44.51-8.73-86.2-32.11-116.2-66.18A208.18,208.18,0,0,1,2.86,220.66c-9.37,50.28,4.4,105,39.39,142.3,32.23,34.33,86.67,60,155.49,47.46C187.35,404.89,173.86,393,165.59,379.43Z"/><path className="cls-5" d="M507.21,69c21.47,35.14,13.49,85.36-17.8,112.13,9-15.28,8-35.91-2.49-50.22-9.67-13.19-25.5-20.15-40.66-26.29S415.17,92.1,404.72,79.52c-8.37-10.07-12.79-28.43-5.52-40.44,6.63-10.93,20.19-11.5,32.17-11.42C461.27,27.85,491.46,43.24,507.21,69Z"/><path className="cls-6" d="M168.76,175.5c13.81,12.57,23.06,30.94,21.76,49.56s-14.58,36.63-32.81,40.65c-8.38,1.84-18.06.39-23.85-5.95-5.33-5.84-6.29-14.42-5.9-22.32.78-15.82,5.86-31.22,6.32-47.05.35-12.35-3.22-23.28-9.89-33.5C134.42,148.54,160.85,168.32,168.76,175.5Z"/><path className="cls-7" d="M80.6,409.86s1.07.52,3.11,1.42,5.08,2.14,9,3.66A252.16,252.16,0,0,0,125.61,425c6.92,1.64,14.51,3.06,22.57,4.18a210.28,210.28,0,0,0,25.48,1.87c4.43.08,8.93-.1,13.47-.35,2.27-.19,4.56-.31,6.84-.6,1.14-.13,2.29-.22,3.44-.37l3.44-.47a152.26,152.26,0,0,0,27.28-6.52,146,146,0,0,0,25.55-11.52,153.63,153.63,0,0,0,22.22-15.66,174,174,0,0,0,18.15-17.91,194.1,194.1,0,0,0,14.07-18.11c1-1.47,2-2.89,2.94-4.31s1.81-2.84,2.68-4.21l1.3-2,1.2-2,2.29-3.85c2.89-5,5.3-9.48,7.15-13.21s3.29-6.68,4.27-8.69l1.48-3.1-1.29,3.18c-.85,2.07-2,5.16-3.76,8.94s-3.88,8.4-6.54,13.59-5.86,11-9.81,17c-1,1.52-1.95,3.07-3,4.59s-2.14,3.12-3.27,4.7l-3.57,4.73c-1.2,1.6-2.54,3.14-3.84,4.75a163.07,163.07,0,0,1-18.12,18.64,143.65,143.65,0,0,1-48.78,28.3,155.65,155.65,0,0,1-28,6.55,168.22,168.22,0,0,1-27.79,1.48,192.7,192.7,0,0,1-25.86-2.44,213.46,213.46,0,0,1-22.7-4.9c-6.94-1.86-13.19-3.94-18.67-6s-10.16-3.95-14-5.63-6.76-3.16-8.76-4.17S80.6,409.86,80.6,409.86Z"/><path className="cls-8" d="M111.4,432.86l2.35,1c1.53.62,3.8,1.48,6.68,2.57s6.42,2.32,10.47,3.74,8.65,2.9,13.7,4.45,10.53,3.13,16.35,4.74c2.92.76,5.91,1.59,9,2.31l4.66,1.15,4.77,1.1c3.2.77,6.49,1.39,9.8,2.1l10.09,1.91c3.4.55,6.82,1.22,10.29,1.68l5.19.75c1.73.24,3.48.43,5.22.64s3.47.46,5.22.63l5.22.52c3.47.39,6.94.55,10.38.81,1.72.14,3.44.2,5.15.27l5.09.23c3.38.13,6.72.12,10,.18s6.51-.13,9.67-.15,6.25-.29,9.27-.43,5.92-.49,8.75-.7,5.54-.59,8.16-.89l3.84-.47c1.25-.15,2.46-.39,3.65-.57l6.74-1.07c4.19-.86,7.87-1.55,10.88-2.2l9.43-2.28-9.23,3.05c-3,.87-6.59,1.83-10.77,2.93l-6.71,1.47c-1.19.26-2.4.55-3.65.76l-3.84.65c-5.23,1-11,1.68-17,2.3-3,.24-6.15.55-9.35.74s-6.46.3-9.79.38-6.71.09-10.13,0-6.89-.11-10.37-.36-7-.39-10.52-.76l-5.29-.48c-1.76-.17-3.52-.41-5.28-.61s-3.52-.43-5.27-.68l-5.25-.8c-3.5-.49-7-1.18-10.39-1.77-6.86-1.28-13.56-2.78-20-4.39l-4.79-1.2-4.67-1.28c-3.08-.84-6.07-1.77-9-2.63-5.82-1.79-11.27-3.61-16.26-5.43s-9.52-3.57-13.51-5.19-7.43-3.15-10.23-4.44-5-2.36-6.47-3.1Z"/></svg>