<svg xmlns="http://www.w3.org/2000/svg" viewBox="0 0 405.36 471.22"><defs><style>.cls-1{fill:#fff;}</style></defs><title>Net Profit</title><g id="Layer_2" data-name="Layer 2"><g id="Capa_1" data-name="Capa 1"><path class="cls-1" d="M191.71,320.56h26.71a15.59,15.59,0,0,1,0,31.17H170.53a13.66,13.66,0,1,0,0,27.31h20.92v14.61a13.66,13.66,0,0,0,27.32,0V379H219a42.9,42.9,0,0,0-.61-85.79H191.71a15.58,15.58,0,1,1,0-31.16h47a13.66,13.66,0,0,0,0-27.31H218.67V220.55a13.66,13.66,0,0,0-27.31,0v14.23a42.89,42.89,0,0,0,.35,85.78Z"/><path class="cls-1" d="M382.08,268h0a336.34,336.34,0,0,0-50.81-81.49,378.77,378.77,0,0,0-63.64-60.79l48.72-90.37a13.55,13.55,0,0,0-2.51-16.16C300.61,6.29,286.55,0,270.87,0c-14.56,0-27.81,5.58-38.45,10.06l-.91.37c-8.2,3.38-15.95,6.57-22,6.57a12.81,12.81,0,0,1-4.85-.85C181.29,7.62,163.32,2.33,145.86,2.33c-22.27,0-41.31,8.9-59.91,28a13.75,13.75,0,0,0-1.6,17.07l52.39,79.14a385.85,385.85,0,0,0-62.65,60A338.92,338.92,0,0,0,23.28,268,277.38,277.38,0,0,0,0,378.79a92.54,92.54,0,0,0,92.43,92.43h220.5a92.54,92.54,0,0,0,92.43-92.43A277.38,277.38,0,0,0,382.08,268ZM159.61,143.49h86c8.74,6.1,36.83,26.95,65,61,44.62,53.78,67.25,112.4,67.25,174.26a64.92,64.92,0,0,1-64.93,65.11H92.43a65.2,65.2,0,0,1-65.12-65.12c0-61.73,22.63-120.36,67.25-174.25A353.64,353.64,0,0,1,159.61,143.49Zm82.09-27.32H162.76L113.54,41.82c10.35-8.54,20.38-12.37,32.32-12.37,13.66,0,29,4.67,49.34,12.22a41.49,41.49,0,0,0,14.18,2.45c12,0,23.39-4.78,33.48-9,9.82-4.11,19.11-8,27.91-8,3.94,0,9.27.6,16.13,5.05Z"/></g></g></svg>