<svg id="Capa_1" data-name="Capa 1" xmlns="http://www.w3.org/2000/svg" viewBox="0 0 336.62 416.21"><defs><style>.cls-1{fill:#333652;}</style></defs><title>Notification</title><path className="cls-1" d="M335,353.77l-20.58-41.15a105.15,105.15,0,0,1-11-46.44V174.94A134.73,134.73,0,0,0,203.84,44.69V35.55a35.55,35.55,0,0,0-71.1,0v9.18A134.41,134.41,0,0,0,33.19,174.92v91.25a105,105,0,0,1-11,46.43L1.67,353.72a15.65,15.65,0,0,0,14,22.68h99.49a55.27,55.27,0,0,0,61,39.23,55.73,55.73,0,0,0,45.27-39.23H321a15.64,15.64,0,0,0,14-22.63ZM186.7,376.4a24.11,24.11,0,0,1-36.82,0ZM172.57,35.55v4.39c-1.07,0-2.12-.06-3.16-.07a14.75,14.75,0,0,0-2.1,0c-1.08,0-2.17,0-3.29.06V35.56a4.27,4.27,0,0,1,4.27-4.27h0A4.28,4.28,0,0,1,172.57,35.55ZM177,71.47c2.88.25,5.79.63,8.69,1.14a103.31,103.31,0,0,1,86.48,102.31v91.27a136.46,136.46,0,0,0,14.26,60.43l9.26,18.5H41l9.29-18.53a136.56,136.56,0,0,0,14.21-60.41V174.89a102.92,102.92,0,0,1,86.6-102.3A101.19,101.19,0,0,1,177,71.47Z"/></svg>